<svg width="23" height="23" viewBox="0 0 23 23" fill="none" xmlns="http://www.w3.org/2000/svg">
<path d="M21.8153 22.923L13.1641 14.2717C12.5008 14.8587 11.7273 15.311 10.8437 15.6286C9.96013 15.9463 9.04554 16.1051 8.09997 16.1051C5.83612 16.1051 3.92017 15.3216 2.3521 13.7546C0.784033 12.1876 0 10.2876 0 8.05463C0 5.82163 0.783489 3.92094 2.35047 2.35257C3.91744 0.784188 5.81988 0 8.05777 0C10.2957 0 12.1985 0.783699 13.7663 2.3511C15.334 3.91848 16.1179 5.81908 16.1179 8.0529C16.1179 8.98686 15.958 9.89613 15.6384 10.7807C15.3187 11.6654 14.8563 12.4666 14.2512 13.1846L22.923 21.8025L21.8153 22.923ZM8.07947 14.5923C9.90069 14.5923 11.4436 13.9577 12.7082 12.6884C13.9728 11.4192 14.6051 9.87391 14.6051 8.05253C14.6051 6.23118 13.9728 4.68588 12.7082 3.41663C11.4436 2.14741 9.90069 1.5128 8.07947 1.5128C6.24684 1.5128 4.69424 2.14741 3.42167 3.41663C2.14909 4.68588 1.5128 6.23118 1.5128 8.05253C1.5128 9.87391 2.14909 11.4192 3.42167 12.6884C4.69424 13.9577 6.24684 14.5923 8.07947 14.5923Z" fill="#1C1C1C"/>
</svg>
