<svg width="20" height="26" viewBox="0 0 20 26" fill="none" xmlns="http://www.w3.org/2000/svg">
<path d="M1.9231 25.3333C1.40023 25.3333 0.949 25.1435 0.5694 24.7639C0.1898 24.3843 0 23.933 0 23.4102V7.25643C0 6.73357 0.1898 6.28233 0.5694 5.90273C0.949 5.52313 1.40023 5.33333 1.9231 5.33333H5.24357V4.7564C5.24357 3.42478 5.7034 2.29914 6.62307 1.3795C7.54271 0.459834 8.66834 0 9.99997 0C11.3316 0 12.4572 0.459834 13.3769 1.3795C14.2965 2.29914 14.7564 3.42478 14.7564 4.7564V5.33333H18.0768C18.5997 5.33333 19.0509 5.52313 19.4305 5.90273C19.8101 6.28233 19.9999 6.73357 19.9999 7.25643V23.4102C19.9999 23.933 19.8101 24.3843 19.4305 24.7639C19.0509 25.1435 18.5997 25.3333 18.0768 25.3333H1.9231ZM1.9231 23.8205H18.0768C18.1794 23.8205 18.2734 23.7777 18.3589 23.6923C18.4444 23.6068 18.4871 23.5127 18.4871 23.4102V7.25643C18.4871 7.15386 18.4444 7.05982 18.3589 6.97433C18.2734 6.88887 18.1794 6.84613 18.0768 6.84613H14.7564V10.0897C14.7564 10.3045 14.6834 10.4842 14.5375 10.629C14.3915 10.7738 14.2103 10.8461 13.9939 10.8461C13.7774 10.8461 13.5983 10.7738 13.4564 10.629C13.3145 10.4842 13.2436 10.3045 13.2436 10.0897V6.84613H6.75637V10.0897C6.75637 10.3045 6.6834 10.4842 6.53747 10.629C6.39153 10.7738 6.21034 10.8461 5.9939 10.8461C5.77743 10.8461 5.59827 10.7738 5.4564 10.629C5.31451 10.4842 5.24357 10.3045 5.24357 10.0897V6.84613H1.9231C1.82052 6.84613 1.72649 6.88887 1.641 6.97433C1.55553 7.05982 1.5128 7.15386 1.5128 7.25643V23.4102C1.5128 23.5127 1.55553 23.6068 1.641 23.6923C1.72649 23.7777 1.82052 23.8205 1.9231 23.8205ZM6.75637 5.33333H13.2436V4.7564C13.2436 3.84358 12.9312 3.07478 12.3064 2.45C11.6816 1.8252 10.9128 1.5128 9.99997 1.5128C9.08714 1.5128 8.31833 1.8252 7.69353 2.45C7.06876 3.07478 6.75637 3.84358 6.75637 4.7564V5.33333Z" fill="#1C1B1F"/>
</svg>
