<svg width="19" height="17" viewBox="0 0 19 17" fill="none" xmlns="http://www.w3.org/2000/svg">
<path d="M18.2209 0.17534C17.9609 -0.0446596 17.5409 -0.0646595 16.8209 0.15534C16.3209 0.31534 11.8809 1.99534 7.96094 3.61534C4.44094 5.07534 1.58094 6.35534 1.24094 6.51534C0.860939 6.63534 0.0409387 6.99534 0.000938725 7.55534C-0.0190613 7.91534 0.280939 8.23534 0.860939 8.49534C1.48094 8.81534 4.22094 9.73534 4.80094 9.91534C5.00094 10.5953 6.18094 14.5753 6.24094 14.8153C6.32094 15.1753 6.56094 15.3753 6.68094 15.4553C6.70094 15.4753 6.74094 15.5153 6.78094 15.5353C6.84094 15.5753 6.92094 15.5953 7.02094 15.5953C7.16094 15.5953 7.32094 15.5353 7.46094 15.4353C8.20094 14.8353 9.48094 13.4953 9.84094 13.1153C11.4209 14.3553 13.1409 15.7353 13.3009 15.8953L13.3209 15.9153C13.7009 16.2353 14.1009 16.4153 14.4609 16.4153C14.5809 16.4153 14.7009 16.3953 14.8209 16.3553C15.2409 16.2153 15.5409 15.8153 15.6409 15.2753C15.6409 15.2553 15.6609 15.1753 15.7009 15.0353C16.3809 12.0753 16.9209 9.47534 17.3609 7.29534C17.7809 5.15534 18.1209 3.05534 18.3209 1.93534C18.3609 1.65534 18.4009 1.43534 18.4209 1.29534C18.4809 0.89534 18.5209 0.43534 18.2209 0.17534ZM5.22094 9.85534L14.7609 3.53534C14.7809 3.51534 14.8209 3.49534 14.8409 3.47534C14.8609 3.47534 14.8609 3.45534 14.8809 3.45534C14.9009 3.45534 14.9009 3.45534 14.9209 3.43534C14.9009 3.45534 14.8809 3.51534 14.8409 3.55534L12.4209 5.81534C10.7409 7.35534 8.54094 9.37534 7.08094 10.6953C7.08094 10.6953 7.08094 10.6953 7.08094 10.7153L7.06094 10.7353C7.06094 10.7353 7.06094 10.7553 7.04094 10.7553C7.04094 10.7753 7.04094 10.7753 7.02094 10.7953V10.8153C7.02094 10.8153 7.02094 10.8153 7.02094 10.8353C6.92094 11.9553 6.74094 13.8753 6.66094 14.7353C6.66094 14.7353 6.66094 14.7353 6.66094 14.7153C6.58094 14.4753 5.46094 10.6553 5.22094 9.85534Z" fill="white"/>
</svg>
