<svg width="18" height="13" viewBox="0 0 18 13" fill="none" xmlns="http://www.w3.org/2000/svg">
<path d="M17.37 2.06C17.15 1.18 16.41 0.52 15.51 0.42C11.09 -0.14 6.61 -0.14 2.19 0.42C1.29 0.54 0.55 1.2 0.33 2.06C-0.11 3.84 -0.11 8.38 0.33 10.16C0.55 11.04 1.29 11.7 2.19 11.8C4.41 12.08 6.63 12.22 8.85 12.22C11.07 12.22 13.31 12.08 15.51 11.8C16.41 11.68 17.15 11.02 17.37 10.16C17.83 8.38 17.83 3.82 17.37 2.06ZM11.95 6.28L6.95 9.28C6.93 9.3 6.89 9.3 6.85 9.3C6.81 9.3 6.79 9.3 6.75 9.28C6.69 9.24 6.65 9.18 6.65 9.1V3.1C6.65 3.02 6.69 2.96 6.75 2.92C6.81 2.88 6.89 2.88 6.95 2.92L11.95 5.92C12.01 5.96 12.05 6.02 12.05 6.1C12.05 6.18 12.01 6.24 11.95 6.28Z" fill="white"/>
</svg>
